<svg width="493" height="493" viewBox="0 0 493 493" fill="none" xmlns="http://www.w3.org/2000/svg">
<path d="M5 263.642V0.655827L5.65583 0L132.886 127.23V270.201L361.114 41.9729L446.371 127.23C476.539 157.398 489 199.371 489 235.442V491.214L361.114 363.328V220.358L132.23 449.241L67.9593 384.97C15.4932 332.504 4.99996 280.038 5 263.642Z" fill="url(#paint0_linear_31921_79310)"/>
<mask id="path-2-inside-1_31921_79310" fill="white">
<path d="M132.23 449.241L489 491.214L361.114 363.328L361.769 219.046L132.23 449.241Z"/>
</mask>
<path d="M132.23 449.241L489 491.214L361.114 363.328L361.769 219.046L132.23 449.241Z" fill="#424242"/>
<path d="M489 491.214L488.89 492.148C489.288 492.194 489.671 491.984 489.846 491.624C490.02 491.264 489.948 490.832 489.664 490.549L489 491.214ZM132.23 449.241L131.565 448.577L132.12 450.175L132.23 449.241ZM361.769 219.046L362.709 219.05L361.104 218.382L361.769 219.046ZM361.114 363.328L360.174 363.324L360.449 363.993L361.114 363.328ZM489.11 490.28L132.34 448.307L132.12 450.175L488.89 492.148L489.11 490.28ZM132.896 449.905L362.435 219.71L361.104 218.382L131.565 448.577L132.896 449.905ZM360.829 219.042L360.174 363.324L362.054 363.332L362.709 219.05L360.829 219.042ZM360.449 363.993L488.335 491.879L489.664 490.549L361.778 362.663L360.449 363.993Z" fill="#424242" mask="url(#path-2-inside-1_31921_79310)"/>
<defs>
<linearGradient id="paint0_linear_31921_79310" x1="5" y1="6.50001" x2="2009" y2="1628.5" gradientUnits="userSpaceOnUse">
<stop stop-color="#FF7A00"/>
<stop offset="0.0001" stop-color="#FF6B00"/>
<stop offset="1" stop-color="#0066FF"/>
<stop offset="1" stop-color="#FFA24B"/>
</linearGradient>
</defs>
</svg>
