<svg width="10" height="10" viewBox="0 0 10 10" fill="none" xmlns="http://www.w3.org/2000/svg">
<path d="M8.99902 2.96387C8.99902 2.69368 8.94531 2.43978 8.83789 2.20215C8.73047 1.96126 8.58398 1.75293 8.39844 1.57715C8.21615 1.39811 8.00293 1.25814 7.75879 1.15723C7.5179 1.05306 7.264 1.00098 6.99707 1.00098H2.08496C2.13704 0.851237 2.21029 0.714518 2.30469 0.59082C2.39909 0.467122 2.50814 0.361328 2.63184 0.273438C2.75553 0.185547 2.89062 0.118815 3.03711 0.0732422C3.18685 0.0244141 3.34147 0 3.50098 0H6.99707C7.41048 0 7.79948 0.0797526 8.16406 0.239258C8.52865 0.395508 8.84603 0.608724 9.11621 0.878906C9.38965 1.14909 9.60449 1.46647 9.76074 1.83105C9.92025 2.19564 10 2.58464 10 2.99805V6.49902C10 6.65853 9.97559 6.81315 9.92676 6.96289C9.88118 7.10938 9.81445 7.24447 9.72656 7.36816C9.63867 7.49186 9.53288 7.60091 9.40918 7.69531C9.28548 7.78971 9.14876 7.86296 8.99902 7.91504V2.96387ZM1.47461 10C1.2793 10 1.09212 9.96094 0.913086 9.88281C0.734049 9.80143 0.576172 9.69401 0.439453 9.56055C0.30599 9.42383 0.198568 9.26595 0.117188 9.08691C0.0390625 8.90788 0 8.7207 0 8.52539V3.47656C0 3.27799 0.0390625 3.09082 0.117188 2.91504C0.198568 2.736 0.30599 2.57975 0.439453 2.44629C0.576172 2.30957 0.732422 2.20215 0.908203 2.12402C1.08724 2.04264 1.27604 2.00195 1.47461 2.00195H6.52344C6.72201 2.00195 6.91081 2.04264 7.08984 2.12402C7.26888 2.20215 7.42513 2.30794 7.55859 2.44141C7.69206 2.57487 7.79785 2.73112 7.87598 2.91016C7.95736 3.08919 7.99805 3.27799 7.99805 3.47656V8.52539C7.99805 8.72396 7.95736 8.91276 7.87598 9.0918C7.79785 9.26758 7.69043 9.42383 7.55371 9.56055C7.42025 9.69401 7.264 9.80143 7.08496 9.88281C6.90918 9.96094 6.72201 10 6.52344 10H1.47461ZM6.49902 8.99902C6.56738 8.99902 6.63086 8.986 6.68945 8.95996C6.7513 8.93392 6.80501 8.89811 6.85059 8.85254C6.89941 8.80697 6.93685 8.75488 6.96289 8.69629C6.98893 8.63444 7.00195 8.56934 7.00195 8.50098V3.50098C7.00195 3.43262 6.98893 3.36751 6.96289 3.30566C6.93685 3.24382 6.90104 3.1901 6.85547 3.14453C6.8099 3.09896 6.75618 3.06315 6.69434 3.03711C6.63249 3.01107 6.56738 2.99805 6.49902 2.99805H1.49902C1.43066 2.99805 1.36556 3.01107 1.30371 3.03711C1.24512 3.06315 1.19303 3.10059 1.14746 3.14941C1.10189 3.19499 1.06608 3.2487 1.04004 3.31055C1.014 3.36914 1.00098 3.43262 1.00098 3.50098V8.50098C1.00098 8.56934 1.014 8.63444 1.04004 8.69629C1.06608 8.75488 1.10189 8.80697 1.14746 8.85254C1.19303 8.89811 1.24512 8.93392 1.30371 8.95996C1.36556 8.986 1.43066 8.99902 1.49902 8.99902H6.49902Z" fill="white"/>
</svg>
