<svg width="25" height="25" viewBox="0 0 25 25" fill="none" xmlns="http://www.w3.org/2000/svg">
<path d="M0.367188 13.0732V0.0325203L0.399708 0L6.70865 6.30894V13.3984L18.0257 2.0813L22.2534 6.30894C23.7493 7.80488 24.3672 9.88618 24.3672 11.6748V24.3577L18.0257 18.0163V10.9268L6.67613 22.2764L3.48914 19.0894C0.887513 16.4878 0.367188 13.8862 0.367188 13.0732Z" fill="white"/>
<mask id="path-2-inside-1_31905_79311" fill="white">
<path d="M6.67603 22.2764L24.3671 24.3577L18.0256 18.0163L18.0581 10.8618L6.67603 22.2764Z"/>
</mask>
<path d="M6.67603 22.2764L24.3671 24.3577L18.0256 18.0163L18.0581 10.8618L6.67603 22.2764Z" fill="#616161"/>
<path d="M24.3671 24.3577L24.2572 25.2913C24.6548 25.3381 25.0384 25.1279 25.213 24.7677C25.3876 24.4074 25.3148 23.9761 25.0318 23.6931L24.3671 24.3577ZM6.67603 22.2764L6.0104 21.6127L6.56619 23.21L6.67603 22.2764ZM18.0581 10.8618L18.9981 10.8661L17.3925 10.1981L18.0581 10.8618ZM18.0256 18.0163L17.0856 18.012L17.3609 18.681L18.0256 18.0163ZM24.4769 23.4242L6.78586 21.3429L6.56619 23.21L24.2572 25.2913L24.4769 23.4242ZM7.34165 22.9402L18.7238 11.5255L17.3925 10.1981L6.0104 21.6127L7.34165 22.9402ZM17.1181 10.8575L17.0856 18.012L18.9656 18.0206L18.9981 10.8661L17.1181 10.8575ZM17.3609 18.681L23.7024 25.0224L25.0318 23.6931L18.6903 17.3516L17.3609 18.681Z" fill="#616161" mask="url(#path-2-inside-1_31905_79311)"/>
</svg>
